<svg version="1.1" id="Layer_1" xmlns="http://www.w3.org/2000/svg" xmlns:xlink="http://www.w3.org/1999/xlink" x="0px" y="0px" style="enable-background:new 0 0 34.7 34.7;" xml:space="preserve" viewBox="-0.03 -0.12 34.85 34.85">
<style type="text/css">
	.st0{fill:#0084ff;}
</style><style class="darkreader darkreader--sync" media="screen"/>
<path id="XMLID_28_" class="st0" d="M2.4,19.7h4.1c4.7,0,8.5,3.8,8.5,8.5v4c0,1.3,1,2.5,2.3,2.5c1.4,0.1,2.5-1,2.5-2.4v-4.1  c0-4.7,3.8-8.5,8.5-8.5h4.1c1.4,0,2.5-1.1,2.4-2.5c-0.1-1.3-1.2-2.3-2.5-2.3h-4c-4.7,0-8.5-3.8-8.5-8.5v-4c0-1.3-1-2.5-2.3-2.5  C16.1-0.1,15,1,15,2.4v4.1c0,4.7-3.8,8.5-8.5,8.5h-4c-1.3,0-2.5,1-2.5,2.3C-0.1,18.6,1,19.7,2.4,19.7z"/>
</svg>